<svg xmlns="http://www.w3.org/2000/svg" width="100" height="100" style="width:100%;height:100%;transform:translate3d(0,0,0);content-visibility:visible" viewBox="0 0 430 430"><defs><clipPath id="a"><path d="M0 0h430v430H0z"/></clipPath><clipPath id="e"><path d="M0 0h430v430H0z"/></clipPath><clipPath id="g"><path d="M0 0h430v430H0z"/></clipPath><clipPath id="f"><path d="M0 0h430v430H0z"/></clipPath><clipPath id="b"><path d="M0 0h430v430H0z"/></clipPath><mask id="d"><path fill="#fff" d="M35 35h430v430H35z"/><path d="m512.5-8.5 2.75 72-14.75 30.25-.5-.25 42.25-4.25 18.408 15.174 53.092 9.326-12.5-97L512.5-8.5"/></mask><mask id="c"><path fill="#fff" d="M201-80h430v430H201z"/><path d="m624-140.75 1.727 45.203 1.023 26.797L612-38.5l-.5-.25L653.75-43l18.408 15.174L725.25-18.5l-12.5-97L624-140.75"/></mask></defs><g clip-path="url(#a)"><g clip-path="url(#b)" style="display:block"><g style="display:block"><path fill="#F24C00" d="M153.89 224.927h-35.387v56.669h35.387v-56.669z" class="secondary"/><path fill="none" stroke="#121331" stroke-linecap="round" stroke-linejoin="round" stroke-width="20" d="M177.149 117.494s0 0 0 0" class="primary"/><path fill="#2CA58D" d="m80.067 119.179 15.176-58.513 15.176 58.513" class="senary"/><path fill="#F24C00" d="M118.503 281.596h-46.52V119.179h46.52v162.417z" class="secondary"/><path fill="#F24C00" d="M118.503 216.372H72.069v-10.483h46.434v10.483zm0 32.426h-46.52v-3.431h46.52v3.431zm81.906 32.798H153.89V165.622h46.519v115.974z" class="secondary"/><path fill="none" stroke="#121331" stroke-linecap="round" stroke-linejoin="round" stroke-width="20" d="M95.243 59.575s0 0 0 0" class="primary"/><path fill="#2CA58D" d="M200.409 165.622v-3.537c0-13.02-10.414-23.575-23.26-23.575-12.846 0-23.259 10.555-23.259 23.575v3.537" class="senary"/><path fill="none" stroke="#3A3347" stroke-linecap="round" stroke-linejoin="round" stroke-width="7" d="M177.106 241.974v-18.327m.086-21.334v-18.326" class="tertiary"/><path fill="#B26836" d="M375.119 281.596H54.881v55.351a3 3 0 0 0 3 3h314.238a3 3 0 0 0 3-3v-55.351z" class="quaternary"/><path fill="#B26836" d="M160.119 80.096H36.848v58.351h120.271a3 3 0 0 0 3-3V80.096zm-196.967 0h-123.271v54.5a3 3 0 0 0 3 3h120.271v-57.5z" class="quaternary" opacity=".5" style="mix-blend-mode:multiply" transform="translate(215 201.5)"/><path fill="#FFC738" d="M200.409 281.596v-39.66h29.182v39.66m142.528 93.403H57.881a3 3 0 0 1-3-3v-37.048h320.238v37.048a3 3 0 0 1-3 3z" class="quinary"/><path fill="#FFC738" d="M157.119 173.478H36.848V133.43h123.271v37.048a3 3 0 0 1-3 3z" class="quinary" opacity=".5" style="mix-blend-mode:multiply" transform="translate(215 201.5)"/><path fill="#3A3347" d="M352.012 374.999h-25.228v-27.416c0-6.967 5.647-12.614 12.614-12.614 6.967 0 12.614 5.647 12.614 12.614v27.416zm-49.41 0h-25.228v-27.416c0-6.967 5.647-12.614 12.614-12.614 6.967 0 12.614 5.647 12.614 12.614v27.416z" class="tertiary"/><path fill="#FFC738" d="M-36.848 173.499h-120.271a3 3 0 0 1-3-3v-37.048h123.271v40.048z" class="quinary" opacity=".5" style="mix-blend-mode:multiply" transform="translate(215 201.5)"/><path fill="#3A3347" d="M152.637 374.999h-25.228v-27.416c0-6.967 5.647-12.614 12.614-12.614 6.967 0 12.614 5.647 12.614 12.614v27.416zm-49.409 0H77.999v-27.416c0-6.967 5.647-12.614 12.614-12.614 6.967 0 12.615 5.647 12.615 12.614v27.416z" class="tertiary"/><path fill="#F24C00" d="M-96.497 23.427h10v56.669h-10V23.427z" class="secondary" opacity=".5" style="mix-blend-mode:multiply" transform="translate(215 201.5)"/><path fill="#2CA58D" d="M-32.851-62.438a23.083 23.083 0 0 0-5-.552c-12.846 0-23.259 10.554-23.259 23.575v3.537h10v-3.537c0-11.28 7.818-20.703 18.259-23.023z" class="senary" opacity=".5" style="mix-blend-mode:multiply" transform="translate(215 201.5)"/><path fill="#F24C00" d="M-61.11-35.878V80.096h10V-35.878h-10zm-81.907-46.443V80.096h10V-82.321h-10z" class="secondary" opacity=".5" style="mix-blend-mode:multiply" transform="translate(215 201.5)"/><path fill="#FFC738" d="M251.848 344.032h-73.696v-62.436h73.696v62.436z" class="quinary"/><path fill="#3A3347" d="M227.614 374.999h-25.228v-27.416c0-6.967 5.647-12.614 12.614-12.614 6.967 0 12.614 5.647 12.614 12.614v27.416z" class="tertiary"/></g><g fill="none" stroke="#121331" stroke-linecap="round" stroke-linejoin="round" stroke-width="7" style="display:block"><path d="M118.503 281.716h-46.52V119.3h46.52v162.416zm81.906.001h-46.52V165.743h46.52v115.974zM80.067 119.299l15.176-58.512 15.176 58.512m-38.436.257V85.062m46.519 34.278V84.846M95.243 60.787V28.121m0 31.574s0 0 0 0" class="primary"/><path d="M153.89 225.048h-35.388v56.668h35.388v-56.668zm46.519-59.305v-3.538c0-13.02-10.414-23.574-23.26-23.574 0 0 0 0 0 0-12.846 0-23.26 10.554-23.26 23.574v3.538m23.26-27.113v-34.822m0 13.807s0 0 0 0m-58.646 45.121h-46.52m46.52 39.66h-46.52m128.426 0h-46.52m-35.472 39.66h-46.52m128.512 0h-46.52m-58.732 0V223.73m.086-21.334V184.07m0-21.335v-18.326m81.863 97.685v-18.326m.086-21.334v-18.326" class="primary"/></g><g fill="#B26836" mask="url(#c)" style="display:block" transform="translate(-201 80)"><path d="M527.414-5.731c-36.516-11.551-75.482 8.687-87.033 45.204-11.55 36.517 8.688 75.482 45.205 87.032 36.516 11.551 75.483-8.687 87.033-45.204 11.551-36.517-8.689-75.482-45.205-87.032zm9.314 75.12c-4.923 16.937-22.644 26.676-39.581 21.753-16.937-4.924-26.676-22.644-21.753-39.581 4.923-16.937 22.644-26.676 39.581-21.753 16.937 4.924 26.676 22.644 21.753 39.581z" class="quaternary"/><path d="M2.801-20.697c-12.547-3.969-25.385-4.185-37.299-1.276l-.001.002c-12.076 11.495-1.651 32.097-7.613 45.915 7.951-8.681 20.413-12.621 32.481-9.113a32.31 32.31 0 0 1 4.306 1.598C10.159 17.484 27.29.754 42.112 11.066 33.772-3.563 20.123-15.218 2.801-20.697z" class="quaternary" opacity=".5" style="mix-blend-mode:multiply" transform="translate(524.607 14.977)"/><path d="M46.149-26.622c-6.287 10.86-18.516 17.118-31.116 15.719a32.98 32.98 0 0 1-1.333-.177l-.074-.012a32.366 32.366 0 0 1-4.018-.884A31.844 31.844 0 0 1-.754-17.18c-14.546-4.31-34.408 8.285-46.418-4.736 6.574 20.813 22.827 38.211 45.219 45.294 15.003 4.746 30.416 4.116 44.176-.796v-.001c12.217-13.378-2.901-34.472 3.926-49.203z" class="quaternary" opacity=".5" style="mix-blend-mode:multiply" transform="translate(487.539 103.118)"/></g><g fill="none" stroke="#121331" stroke-linecap="round" stroke-linejoin="round" mask="url(#d)" style="display:block" transform="translate(-35 -35)"><path stroke-width="7" d="M319.118 241.807c-36.516-11.55-56.754-50.517-45.204-87.033 11.55-36.516 50.516-56.755 87.032-45.205 36.516 11.55 56.755 50.517 45.205 87.033-11.55 36.516-50.517 56.755-87.033 45.205zm11.561-35.365c-16.937-4.923-26.675-22.643-21.752-39.58 4.923-16.937 22.644-26.676 39.581-21.753 16.937 4.923 26.675 22.644 21.752 39.581-4.923 16.937-22.644 26.675-39.581 21.752zm22.088-59.754.007.006c15.503 1.092 32.662-15.701 47.504-5.349m-126.405 55.142c12.012 13.071 31.905.438 46.463 4.767m46.907-9.492-.006.007c-6.87 14.733 8.285 35.851-3.942 49.24m-47.271-86.781.006-.008c5.971-13.819-4.462-34.425 7.616-45.924" class="primary"/><path stroke-width="10" d="M308.087 217.862s0 0 0 0m18.697 4.197s0 0 0 0m-28.036-74.271s0 0 0 0m47.984-20.531s0 0 0 0m-54.34 52.887s0 0 0 0m94.505-20.941s0 0 0 0" class="primary"/></g><path fill="none" class="primary" style="display:none"/><g style="display:none"><path class="secondary"/><path fill="none" class="primary"/></g><g style="display:none"><path class="secondary"/><path fill="none" class="primary"/></g><g style="display:none"><path class="secondary"/><path fill="none" class="primary"/></g><g fill="none" stroke="#121331" stroke-linecap="round" stroke-linejoin="round" stroke-width="7" style="display:block"><path d="M375.119 335.071H54.881m320.238-53.354H54.881v93.402h320.238v-93.402zm-174.71-.001v-40.03h29.182v40.03" class="primary"/><path d="M251.848 375.119h-73.696v-93.402h73.696v93.402zm0-93.402v-21.698m-73.696 21.698v-21.698m-41.895 21.698v-13.344m-40.688 13.344v-13.344m-40.688 13.344v-13.344m320.238 12.838v-13.344m-40.688 13.344v-13.344m-40.688 13.344v-13.344m-93.334-48.212v22.032m29.182 0v-22.032m-76.954 155.464h-25.228v-27.416c0-6.967 5.647-12.614 12.614-12.614 0 0 0 0 0 0 6.967 0 12.614 5.647 12.614 12.614v27.416z" class="primary"/><path d="M227.614 375.119h-25.228v-27.416c0-6.967 5.647-12.614 12.614-12.614 0 0 0 0 0 0 6.967 0 12.614 5.647 12.614 12.614v27.416zm-124.387 0H77.999v-27.416c0-6.967 5.647-12.614 12.614-12.614 0 0 0 0 0 0 6.967 0 12.614 5.647 12.614 12.614v27.416zm248.785 0h-25.228v-27.416c0-6.967 5.647-12.614 12.614-12.614 0 0 0 0 0 0 6.967 0 12.614 5.647 12.614 12.614v27.416zm-49.41 0h-25.228v-27.416c0-6.967 5.647-12.614 12.614-12.614 0 0 0 0 0 0 6.967 0 12.614 5.647 12.614 12.614v27.416zM79.967 314.403v-12m36.549 12v-12m36.55 12v-12m123.265 12v-12m36.55 12v-12m36.549 12v-12m-145.054 15.638v-19.276m21.248 19.276v-19.276" class="primary"/></g><path fill="none" class="primary" style="display:none"/></g><g clip-path="url(#e)" style="display:none"><g clip-path="url(#f)" style="display:none"><g style="display:none"><path class="secondary"/><path fill="none" class="primary"/><path class="senary"/><path class="secondary"/><path class="secondary"/><path class="secondary"/><path class="secondary"/><path class="secondary"/><path fill="none" class="primary"/><path class="senary"/><path class="secondary" style="mix-blend-mode:multiply"/><path class="senary" style="mix-blend-mode:multiply"/><path class="secondary" style="mix-blend-mode:multiply"/><path class="secondary" style="mix-blend-mode:multiply"/></g><g fill="none" style="display:none"><path class="primary"/><path class="primary"/><path class="primary"/><path class="primary"/><path class="primary"/><path class="primary"/><path class="primary"/><path class="primary"/><path class="primary"/><path class="primary"/><path class="primary"/><path class="primary"/><path class="primary"/><path class="primary"/><path class="primary"/><path class="primary"/><path class="primary"/><path class="primary"/><path class="primary"/><path class="primary"/><path class="primary"/></g></g><g clip-path="url(#g)" style="display:none"><g style="display:none"><path class="quaternary"/><path class="quaternary" style="mix-blend-mode:multiply"/><path class="quaternary" style="mix-blend-mode:multiply"/><path class="quinary"/><path class="quinary"/><path class="quinary" style="mix-blend-mode:multiply"/><path class="tertiary"/><path class="tertiary"/><path class="quinary" style="mix-blend-mode:multiply"/><path class="tertiary"/><path class="tertiary"/><path class="quinary"/><path class="tertiary"/></g><g fill="none" style="display:none"><path class="primary"/><path class="primary"/><path class="primary"/><path class="primary"/><path class="primary"/><path class="primary"/><path class="primary"/><path class="primary"/><path class="primary"/><path class="primary"/><path class="primary"/><path class="primary"/><path class="primary"/><path class="primary"/><path class="primary"/><path class="primary"/><path class="primary"/><path class="primary"/><path class="primary"/><path class="primary"/><path class="primary"/><path class="primary"/><path class="primary"/><path class="primary"/><path class="primary"/><path class="primary"/><path class="primary"/></g></g><g style="display:none"><path class="quaternary"/><path class="quaternary" style="mix-blend-mode:multiply"/><path class="quaternary" style="mix-blend-mode:multiply"/><path fill="none" class="tertiary"/><path fill="none" class="tertiary"/><path fill="none" class="tertiary"/><path fill="none" class="tertiary"/><path fill="none" class="tertiary"/><path fill="none" class="tertiary"/></g><g fill="none" style="display:none"><path class="primary"/><path class="primary"/></g></g></g></svg>