<svg xmlns="http://www.w3.org/2000/svg" width="100" height="100" style="width:100%;height:100%;transform:translate3d(0,0,0);content-visibility:visible" viewBox="0 0 430 430"><defs><clipPath id="l"><path d="M0 0h430v430H0z"/></clipPath><clipPath id="p"><path d="M0 0h430v430H0z"/></clipPath><clipPath id="t"><path d="M0 0h430v430H0z"/></clipPath><clipPath id="i"><path d="M0 0h430v430H0z"/></clipPath><clipPath id="r"><path d="M0 0h430v430H0z"/></clipPath><clipPath id="j"><path d="M0 0h430v430H0z"/></clipPath><clipPath id="m"><path d="M0 0h430v430H0z"/></clipPath><clipPath id="k"><path d="M0 0h430v430H0z"/></clipPath><filter id="a" width="100%" height="100%" x="0%" y="0%" filterUnits="objectBoundingBox"><feComponentTransfer in="SourceGraphic"><feFuncA tableValues="1.0 0.0" type="table"/></feComponentTransfer></filter><filter id="c" width="100%" height="100%" x="0%" y="0%" filterUnits="objectBoundingBox"><feComponentTransfer in="SourceGraphic"><feFuncA tableValues="1.0 0.0" type="table"/></feComponentTransfer></filter><filter id="e" width="100%" height="100%" x="0%" y="0%" filterUnits="objectBoundingBox"><feComponentTransfer in="SourceGraphic"><feFuncA tableValues="1.0 0.0" type="table"/></feComponentTransfer></filter><filter id="g" width="100%" height="100%" x="0%" y="0%" filterUnits="objectBoundingBox"><feComponentTransfer in="SourceGraphic"><feFuncA tableValues="1.0 0.0" type="table"/></feComponentTransfer></filter><mask id="s" mask-type="alpha"><g filter="url(#a)"><path fill="#fff" d="M0 0h430v430H0z" opacity="0"/><use xmlns:ns1="http://www.w3.org/1999/xlink" ns1:href="#b"/></g></mask><mask id="q" mask-type="alpha"><g filter="url(#c)"><path fill="#fff" d="M0 0h430v430H0z" opacity="0"/><use xmlns:ns2="http://www.w3.org/1999/xlink" ns2:href="#d"/></g></mask><mask id="o" mask-type="alpha"><g filter="url(#e)"><path fill="#fff" d="M0 0h430v430H0z" opacity="0"/><use xmlns:ns3="http://www.w3.org/1999/xlink" ns3:href="#f"/></g></mask><mask id="n" mask-type="alpha"><g filter="url(#g)"><path fill="#fff" d="M0 0h430v430H0z" opacity="0"/><use xmlns:ns4="http://www.w3.org/1999/xlink" ns4:href="#h"/></g></mask><g id="b" clip-path="url(#i)" style="display:none"><path/><path fill-opacity="0" stroke-linecap="round" stroke-linejoin="round" class="primary"/><path fill-opacity="0" stroke-linecap="round" stroke-linejoin="round" class="primary"/><path fill-opacity="0" stroke-linecap="round" stroke-linejoin="round" class="primary"/></g><g id="d" clip-path="url(#j)" style="display:none"><g style="display:none"><path/><path fill-opacity="0" stroke-linecap="round" stroke-linejoin="round" class="primary"/></g><g style="display:none"><path/><path fill-opacity="0" stroke-linecap="round" stroke-linejoin="round" class="primary"/><path fill-opacity="0" stroke-linecap="round" stroke-linejoin="round" class="primary"/><path fill-opacity="0" stroke-linecap="round" stroke-linejoin="round" class="primary"/></g></g><g id="f" style="display:block"><path fill-opacity="0" stroke="#FFF" stroke-linecap="round" stroke-linejoin="round" stroke-width="36" d="M304.695 308.131V112.369c34.712-23.333 69.424-28.774 69.424-28.774v291.524h-27.833"/><path fill="#FFF" d="M350.978 375.119H249.07v-48.772c57.915-23.385 101.908-24.642 101.908-24.642v73.414z"/><path fill-opacity="0" stroke="#FFF" stroke-linecap="round" stroke-linejoin="round" stroke-width="36" d="M350.978 375.119H249.07v-48.772c57.915-23.385 101.908-24.642 101.908-24.642v73.414zm-7.106-282.857V76.536"/></g><g id="h" clip-path="url(#k)" style="display:block"><g style="display:block"><path fill-opacity="0" stroke="#FFF" stroke-linecap="round" stroke-linejoin="round" stroke-width="36" d="M174.755 155.297v-19.984m-22.841 56.299v-29.498m45.589 29.498v-29.498M54.852 235.233v139.886h36.282V235.233"/><path fill="#FFF" d="m72.993 168.616 18.141 66.616H54.852l18.141-66.616z"/><path fill-opacity="0" stroke="#FFF" stroke-linecap="round" stroke-linejoin="round" stroke-width="36" d="m72.993 168.616 18.141 66.616H54.852l18.141-66.616z"/><path fill="#FFF" d="m174.755 155.297 49.96 79.936h-99.92l49.96-79.936z"/><path fill-opacity="0" stroke="#FFF" stroke-linecap="round" stroke-linejoin="round" stroke-width="36" d="m174.755 155.297 49.96 79.936h-99.92l49.96-79.936zM72.887 168.216v-32m201.787 238.903H91.134V235.233h183.54v139.886zm-49.96-141.188v141.188m24.936-180.25v-17.708M99.768 194.869v-17.708m162.24 38.088h12.668v19.986"/><path fill-opacity="0" stroke="#FFF" stroke-linecap="round" stroke-linejoin="round" stroke-width="36" d="M224.628 235.235v-19.986h12.668m0 .001v-19.986h24.712v19.986m-174.596-.001h-1.724m26.436 0h12.668v19.986m-37.38-19.985v-19.986h24.712v19.986"/></g><g style="display:block"><path fill-opacity="0" stroke="#FFF" stroke-linecap="round" stroke-linejoin="round" stroke-width="36" d="M304.695 308.131V112.369c34.712-23.333 69.424-28.774 69.424-28.774v291.524h-27.833"/><path fill="#FFF" d="M350.978 375.119H249.07v-48.772c57.915-23.385 101.908-24.642 101.908-24.642v73.414z"/><path fill-opacity="0" stroke="#FFF" stroke-linecap="round" stroke-linejoin="round" stroke-width="36" d="M350.978 375.119H249.07v-48.772c57.915-23.385 101.908-24.642 101.908-24.642v73.414zm-7.106-282.857V76.536"/></g></g></defs><g fill="none" clip-path="url(#l)"><g stroke-linecap="round" stroke-linejoin="round" stroke-width="12" clip-path="url(#m)" style="display:block"><g stroke="#08A88A" mask="url(#n)" style="display:block"><path d="m256.746 221.866-.029-142.312s0 0 0 0c-38.319-22.401-85.739-22.401-124.058 0 0 0 0 0 0 0v127.681" class="secondary"/><path d="M256.717 129.178c-24.812-37.217-37.217-30.391-62.029-48.396-24.812 18.005-37.217 11.179-62.029 48.396m0-49.623c0 41.439-62.03 99.246-62.03 99.246m186.087-99.246c0 41.439 62.03 99.246 62.03 99.246M132.658 79.555l34.9 16.174m89.159-16.174-34.9 16.174m-27.129-14.947V62.754" class="secondary"/></g><g mask="url(#o)" style="display:block"><path stroke="#08A88A" d="M187.622 293.476v-14.688m-25.419 14.688v-14.688m-24.792 96.066v-29.77c0-7.364-4.512-14.469-12.671-19.952 0 0 0 0 0 0s0 0 0 0c-8.159 5.483-12.671 12.588-12.671 19.952v29.77m137.739-81.378v-14.688" class="secondary"/><path stroke="#121331" d="M174.913 155.297v-19.984m-22.84 56.299v-29.498m45.589 29.498v-29.498M55.01 235.232v139.887h36.283V235.232m-18.141-66.617 18.141 66.617H55.01l18.142-66.617zm51.801 66.617 49.96-79.935 49.96 79.935M73.045 168.216v-32.001m201.787 238.904H91.293m0 0V235.232m0 0 69.457.456m29 .261 85.082-.717m0 0v139.887M224.873 233.93v141.189m24.935-180.25v-17.708M99.926 194.869v-17.708m162.241 38.088h12.667v19.985m-50.048 0v-19.985h12.668m0 0v-19.985h24.713v19.985m-174.597 0h-1.723m26.436 0h12.668v19.985M87.57 215.249v-19.985h24.713v19.985m-20.99 49.959H55.01m36.283 22.29H55.01m36.283 40.438H55.01m94.224-131.553h51.358m-11.95 58.416h-27.458v-38.046h27.458v38.046z" class="primary"/><path stroke="#08A88A" d="M187.622 337.54v-14.688m-25.419 14.688v-14.688" class="secondary"/></g><g style="display:block"><path stroke="#121331" d="M304.695 308.131V112.369c34.712-23.333 69.424-28.774 69.424-28.774v291.524h-27.833" class="primary"/><path stroke="#121331" d="M350.978 375.119H249.07v-48.772c57.915-23.385 101.908-24.642 101.908-24.642v73.414z" class="primary"/><path stroke="#08A88A" d="M351.978 125.036v70.326m-24.012 1.224h-3.672" class="secondary"/><path stroke="#121331" d="M327.966 173.022h-3.672" class="primary"/><path stroke="#08A88A" d="M327.966 149.459h-3.672" class="secondary"/><path stroke="#121331" d="M327.966 125.895h-3.672" class="primary"/><path stroke="#08A88A" d="M327.966 243.714h-3.672" class="secondary"/><path stroke="#121331" d="M327.966 220.15h-3.672" class="primary"/><path stroke="#08A88A" d="M353.814 243.714h-3.672" class="secondary"/><path stroke="#121331" d="M353.814 220.15h-3.672M274.89 356.87h-3.672m3.672-19.19h-3.672" class="primary"/><path stroke="#08A88A" d="M301.86 356.87h-3.672" class="secondary"/><path stroke="#121331" d="M301.86 337.68h-3.672m30.642 19.19h-3.672" class="primary"/><path stroke="#08A88A" d="M328.83 337.68h-3.672" class="secondary"/><path stroke="#121331" d="M343.872 92.262V76.536" class="primary"/><path stroke="#08A88A" d="M327.965 267.151h-3.672" class="secondary"/><path stroke="#121331" d="M353.813 267.151h-3.672" class="primary"/></g></g><g clip-path="url(#p)" style="display:none"><g mask="url(#q)" style="display:none"><path class="secondary"/><path class="secondary"/><path class="secondary"/><path class="secondary"/><path class="secondary"/><path class="secondary"/><path class="secondary"/></g><g clip-path="url(#r)" mask="url(#s)" style="display:none"><path class="secondary"/><path class="secondary"/><path class="secondary"/><path class="secondary"/><path class="secondary"/><path class="secondary"/><path class="primary"/></g><g clip-path="url(#t)" style="display:none"><path class="secondary"/><path class="secondary"/><path class="primary"/><path class="secondary"/><path class="primary"/><path class="secondary"/><path class="primary"/><path class="secondary"/><path class="primary"/><path class="primary"/><path class="primary"/><path class="secondary"/><path class="primary"/><path class="primary"/><path class="secondary"/><path class="secondary"/><path class="primary"/><path class="primary"/><path class="primary"/><path class="primary"/></g></g></g></svg>